<svg width="395" height="75" viewBox="0 0 395 75" fill="none" xmlns="http://www.w3.org/2000/svg">
<path d="M394.72 37.358C394.72 45.4545 393.146 52.2846 389.997 57.848C386.848 63.3878 382.599 67.59 377.249 70.4546C371.898 73.2955 365.932 74.7159 359.351 74.7159C352.722 74.7159 346.732 73.2836 341.382 70.419C336.055 67.5308 331.818 63.3168 328.669 57.777C325.544 52.2135 323.981 45.4072 323.981 37.358C323.981 29.2614 325.544 22.4432 328.669 16.9034C331.818 11.34 336.055 7.13778 341.382 4.29688C346.732 1.43229 352.722 0 359.351 0C365.932 0 371.898 1.43229 377.249 4.29688C382.599 7.13778 386.848 11.34 389.997 16.9034C393.146 22.4432 394.72 29.2614 394.72 37.358ZM374.408 37.358C374.408 33.0019 373.828 29.3324 372.668 26.3494C371.531 23.3428 369.838 21.0701 367.589 19.5313C365.364 17.9688 362.618 17.1875 359.351 17.1875C356.084 17.1875 353.326 17.9688 351.077 19.5313C348.851 21.0701 347.159 23.3428 345.999 26.3494C344.862 29.3324 344.294 33.0019 344.294 37.358C344.294 41.714 344.862 45.3954 345.999 48.402C347.159 51.3849 348.851 53.6577 351.077 55.2202C353.326 56.759 356.084 57.5284 359.351 57.5284C362.618 57.5284 365.364 56.759 367.589 55.2202C369.838 53.6577 371.531 51.3849 372.668 48.402C373.828 45.3954 374.408 41.714 374.408 37.358Z" fill="black"/>
<path d="M294.25 25C293.942 23.7453 293.456 22.6444 292.794 21.6974C292.131 20.7268 291.302 19.91 290.308 19.2472C289.337 18.5606 288.201 18.0516 286.899 17.7202C285.62 17.3651 284.212 17.1875 282.673 17.1875C279.358 17.1875 276.529 17.9806 274.186 19.5668C271.866 21.1529 270.09 23.4375 268.859 26.4205C267.652 29.4034 267.048 33.0019 267.048 37.2159C267.048 41.4773 267.628 45.1231 268.788 48.1534C269.948 51.1837 271.676 53.5038 273.973 55.1136C276.269 56.7235 279.122 57.5284 282.531 57.5284C285.537 57.5284 288.035 57.0904 290.024 56.2145C292.036 55.3385 293.539 54.0957 294.534 52.4858C295.528 50.876 296.025 48.982 296.025 46.804L299.434 47.1591H282.815V33.0966H315.059V43.1818C315.059 49.8106 313.651 55.4806 310.833 60.1918C308.04 64.8793 304.181 68.4778 299.257 70.9872C294.356 73.473 288.733 74.7159 282.389 74.7159C275.31 74.7159 269.096 73.2126 263.745 70.206C258.395 67.1993 254.216 62.9143 251.21 57.3509C248.227 51.7874 246.735 45.1705 246.735 37.5C246.735 31.4867 247.647 26.16 249.47 21.5199C251.316 16.8797 253.873 12.9617 257.14 9.76563C260.407 6.54593 264.183 4.11932 268.468 2.48579C272.753 0.828598 277.346 0 282.247 0C286.555 0 290.556 0.615531 294.25 1.84659C297.966 3.05398 301.245 4.7822 304.086 7.03125C306.951 9.25663 309.259 11.8963 311.011 14.9503C312.763 18.0043 313.828 21.3542 314.207 25H294.25Z" fill="black"/>
<path d="M237.68 0.994385V73.7217H221.203L194.924 35.5114H194.498V73.7217H174.754V0.994385H191.515L217.368 39.0626H217.936V0.994385H237.68Z" fill="black"/>
<path d="M114.056 73.7217H92.749L116.755 0.994385H143.743L167.749 73.7217H146.442L130.533 21.0228H129.965L114.056 73.7217ZM110.079 45.0285H150.135V59.8012H110.079V45.0285Z" fill="black"/>
<path d="M2 0.994385H26.5739L43.4773 42.1876H44.3295L61.233 0.994385H85.8068V73.7217H66.4886V31.6762H65.9205L49.7273 73.1535H38.0795L21.8864 31.3921H21.3182V73.7217H2V0.994385Z" fill="black"/>
</svg>
